<svg version="1.0" xmlns="http://www.w3.org/2000/svg"
 width="300.000000pt" height="420.000000pt" viewBox="0 0 300.000000 420.000000"
 preserveAspectRatio="xMidYMid meet">
<g transform="translate(0.000000,420.000000) scale(0.100000,-0.100000)"
fill="#ffffff" stroke="none">
<path d="M1470 3971 c-5 -11 -10 -28 -10 -38 0 -12 -12 -24 -32 -32 l-33 -14
30 -6 c28 -6 31 -10 36 -59 11 -87 30 -85 37 3 4 55 5 55 38 55 18 0 35 4 38
9 7 11 -17 21 -50 21 -20 0 -24 5 -23 23 5 57 -10 76 -31 38z"/>
<path d="M1387 3706 c-79 -43 -258 -195 -253 -215 2 -9 10 -44 16 -78 12 -59
30 -86 30 -45 0 11 28 38 75 71 41 28 75 56 75 60 0 5 -6 14 -14 20 -11 9 -15
7 -20 -11 -5 -19 -8 -20 -16 -8 -8 12 -10 9 -10 -12 0 -16 -4 -28 -10 -28 -5
0 -10 5 -10 10 0 6 -4 10 -10 10 -5 0 -7 -7 -3 -16 5 -13 2 -15 -14 -10 -14 5
-20 2 -19 -6 0 -7 -3 -14 -8 -15 -5 -1 -13 -7 -17 -15 -6 -9 -9 -2 -9 19 0 27
9 40 61 83 64 53 75 59 65 34 -3 -8 -2 -12 4 -9 6 3 10 26 10 51 l0 44 138 -7
c138 -6 182 -14 182 -33 0 -5 7 -10 15 -10 8 0 15 -8 15 -17 0 -15 2 -16 10
-3 8 12 11 11 16 -8 5 -16 9 -20 14 -12 6 9 13 9 31 0 31 -17 39 -30 34 -55
-2 -11 -6 -54 -10 -95 l-5 -75 20 24 c16 19 20 37 20 102 0 89 5 83 -141 173
-43 26 -81 57 -87 71 -24 53 -90 57 -175 11z m141 4 c13 0 12 -3 -4 -15 -19
-14 -18 -14 4 -15 12 0 22 -4 22 -10 0 -6 -41 -10 -102 -10 -70 0 -98 3 -88
10 8 5 27 10 42 10 19 0 26 4 22 14 -7 17 20 26 60 20 16 -2 36 -4 44 -4z"/>
<path d="M1540 3547 c0 -15 37 -57 50 -57 11 0 -31 69 -42 70 -5 0 -8 -6 -8
-13z"/>
<path d="M1482 3405 c2 -30 8 -55 13 -55 6 0 11 25 13 55 2 45 0 55 -13 55
-13 0 -15 -10 -13 -55z"/>
<path d="M1397 3443 c-10 -9 -8 -76 2 -92 7 -11 11 -10 20 7 23 43 5 113 -22
85z"/>
<path d="M1271 3373 c4 -62 -3 -83 -27 -83 -17 0 -19 41 -3 57 12 12 4 33 -12
33 -5 0 -13 -8 -16 -17 -4 -10 -15 -24 -25 -31 -10 -7 -16 -18 -12 -24 4 -6
10 -6 17 1 17 17 27 13 27 -8 0 -27 -95 -108 -137 -116 -41 -7 -49 -23 -33
-70 7 -20 18 -84 25 -143 l13 -107 1 115 c0 82 -4 122 -14 140 -8 14 -14 28
-15 31 0 4 37 9 83 11 65 4 93 11 137 34 51 28 60 29 180 29 102 0 131 -3 159
-18 22 -13 64 -21 127 -24 65 -4 94 -10 94 -18 0 -18 -34 -25 -126 -25 -65 0
-92 5 -135 24 -61 28 -169 45 -169 27 0 -7 20 -11 51 -11 31 0 48 -4 44 -10
-4 -6 5 -10 20 -10 14 0 43 -9 65 -20 31 -16 59 -20 135 -20 l95 0 0 -237 c0
-142 4 -233 9 -227 5 5 14 115 20 244 15 324 18 294 -26 309 -69 23 -194 104
-188 120 3 8 9 35 12 59 5 36 3 44 -8 40 -9 -3 -15 -22 -17 -51 l-3 -46 -165
-3 -164 -3 0 53 c0 31 -4 52 -11 52 -7 0 -10 -21 -8 -57z m391 -105 c112 -72
110 -69 53 -62 -27 3 -75 14 -105 25 -40 14 -82 19 -156 19 -90 0 -110 -3
-170 -29 -75 -32 -156 -51 -139 -33 6 6 44 35 85 66 l75 54 145 1 146 1 66
-42z"/>
<path d="M1686 3383 c-9 -9 -7 -66 3 -81 6 -10 10 -8 14 10 13 48 3 91 -17 71z"/>
<path d="M1555 3198 c26 -19 101 -48 123 -48 16 0 -82 46 -123 57 -20 5 -20 5
0 -9z"/>
<path d="M1180 3123 c-25 -3 -49 -9 -55 -15 -7 -7 2 -9 30 -4 22 3 55 6 73 6
17 0 32 5 32 10 0 6 -8 9 -17 8 -10 -1 -38 -3 -63 -5z"/>
<path d="M1358 3090 c-21 -11 -38 -27 -38 -35 0 -19 3 -19 42 5 42 25 120 26
167 2 51 -25 72 -60 78 -130 l6 -61 -59 5 -59 4 53 -14 c29 -7 56 -16 60 -20
3 -4 9 -107 12 -229 l5 -221 35 -8 c19 -4 70 -5 113 -1 l77 6 0 51 c0 60 -9
98 -21 91 -4 -3 -5 -28 -2 -56 8 -64 1 -69 -103 -69 l-81 0 -6 278 c-7 313
-12 339 -70 386 -33 26 -48 31 -105 33 -52 3 -75 -1 -104 -17z"/>
<path d="M1428 3010 c-16 -16 -28 -31 -28 -34 0 -2 14 -11 30 -20 30 -15 31
-14 50 17 18 29 18 33 3 49 -21 23 -23 23 -55 -12z"/>
<path d="M1303 2864 c-18 -9 -33 -20 -33 -25 0 -12 3 -11 36 6 37 19 67 19
105 -1 40 -20 59 -13 24 10 -39 26 -94 30 -132 10z"/>
<path d="M1510 2820 c-11 -11 -20 -27 -20 -35 0 -9 -9 -15 -22 -15 -21 0 -21
0 -2 -21 17 -19 19 -39 21 -188 1 -91 4 -165 7 -163 3 1 29 2 56 2 l50 0 -1
138 c0 179 -11 281 -29 292 -23 15 -38 12 -60 -10z m38 -52 c13 -17 26 -232
17 -291 -4 -27 -13 -47 -20 -47 -15 0 -39 51 -28 59 10 7 0 213 -11 249 -12
37 18 58 42 30z"/>
<path d="M1340 2823 c-8 -3 -18 -11 -22 -17 -4 -6 -8 -99 -8 -208 l0 -196
-139 -4 c-77 -1 -143 -6 -146 -10 -10 -10 25 -149 36 -142 14 8 11 62 -6 94
-13 25 -13 29 1 34 24 9 129 7 139 -3 6 -5 36 -2 70 6 33 8 85 17 115 21 l55
7 8 45 c11 59 0 241 -19 307 -17 62 -42 82 -84 66z m45 -77 c11 -17 18 -60 22
-145 6 -117 5 -122 -17 -146 -26 -28 -40 -25 -40 9 0 12 -5 27 -12 34 -7 7 -8
12 -1 12 7 0 9 38 6 116 -3 63 -2 122 1 130 8 21 23 17 41 -10z"/>
<path d="M1073 2685 c0 -33 2 -45 4 -27 2 18 2 45 0 60 -2 15 -4 0 -4 -33z"/>
<path d="M1853 2363 c-10 -37 -10 -239 0 -249 4 -4 9 -5 11 -3 8 9 14 279 5
279 -5 0 -12 -12 -16 -27z"/>
<path d="M1658 2343 c23 -2 59 -2 80 0 20 2 1 4 -43 4 -44 0 -61 -2 -37 -4z"/>
<path d="M1142 2333 c37 -2 100 -2 140 0 40 1 10 3 -67 3 -77 0 -110 -1 -73
-3z"/>
<path d="M1323 2313 c-29 -2 -53 -9 -53 -15 0 -7 52 -9 175 -3 l175 7 0 -81
c0 -47 4 -81 10 -81 6 0 10 37 10 90 l0 90 -132 -2 c-73 -1 -157 -3 -185 -5z"/>
<path d="M1406 2271 c-6 -10 31 -51 46 -51 15 0 8 16 -16 39 -14 13 -26 18
-30 12z"/>
<path d="M1474 2269 c-4 -7 4 -20 17 -30 42 -32 54 -19 19 19 -24 25 -26 26
-36 11z"/>
<path d="M1551 2266 c-9 -11 -8 -15 4 -20 10 -3 15 -19 15 -48 0 -24 5 -50 10
-58 7 -11 10 5 10 51 0 71 -16 103 -39 75z"/>
<path d="M1325 2260 c-3 -5 8 -16 25 -25 33 -17 40 -7 12 18 -21 19 -28 21
-37 7z"/>
<path d="M1620 2079 c-212 -4 -493 -12 -625 -18 -132 -6 -303 -11 -381 -11
-180 0 -234 -7 -234 -30 0 -15 9 -17 73 -13 39 2 91 8 114 14 23 5 125 9 227
9 175 0 186 -1 196 -20 6 -11 15 -20 21 -20 6 0 6 8 -1 21 -7 11 -10 22 -8 24
2 1 201 8 442 14 294 8 442 8 446 1 4 -6 17 -6 38 -1 17 5 132 13 254 16 253
8 266 9 275 18 7 8 -293 7 -837 -4z"/>
<path d="M2524 2055 c-3 -19 -11 -38 -17 -42 -6 -3 -240 -12 -521 -19 -434
-10 -513 -10 -527 2 -20 18 -28 18 -48 0 -13 -11 -87 -17 -346 -26 -181 -6
-402 -12 -490 -13 l-160 -2 5 -25 c6 -32 5 -119 -3 -195 -3 -33 -6 -112 -6
-176 l-1 -116 -82 -7 c-104 -9 -202 -50 -169 -70 5 -3 7 -14 5 -24 -3 -9 1
-26 9 -36 13 -18 14 -16 14 21 0 54 8 63 49 63 19 0 50 6 69 14 19 8 55 18 80
21 41 7 45 10 45 36 0 16 5 29 10 29 6 0 10 -7 10 -15 0 -8 7 -15 15 -15 21 0
19 12 -6 44 -20 26 -21 35 -15 144 3 64 7 153 8 198 l2 81 179 6 c312 12 361
10 382 -13 24 -27 37 -25 29 3 l-5 24 160 7 c137 6 164 5 183 -8 21 -15 21
-16 3 -16 -16 0 -15 -3 9 -29 l27 -29 -26 -28 c-23 -25 -29 -27 -47 -15 -11 7
-23 10 -26 6 -4 -3 0 -10 8 -15 12 -7 12 -12 3 -21 -10 -10 -17 -9 -32 5 -17
16 -20 16 -35 0 -9 -9 -19 -29 -23 -44 -4 -23 -37 -50 -184 -149 -155 -104
-185 -121 -219 -121 -44 0 -48 -5 -24 -32 14 -14 14 -18 3 -22 -8 -3 -117 -10
-243 -15 -179 -8 -233 -14 -245 -25 -13 -13 -12 -16 11 -25 23 -9 38 -29 38
-52 0 -5 -12 -10 -27 -10 l-28 -1 30 -7 c21 -5 30 -12 28 -25 -1 -10 -6 -91
-13 -180 -6 -88 -15 -225 -21 -303 -5 -79 -15 -157 -21 -174 -9 -26 -8 -33 6
-41 15 -8 15 -11 -1 -33 -10 -12 -21 -21 -26 -18 -4 2 -7 -12 -7 -32 0 -35 0
-35 24 -20 35 23 43 0 10 -28 -21 -18 -25 -28 -19 -47 7 -22 8 -22 18 -4 6 10
19 25 29 32 11 8 18 26 18 46 0 26 4 33 17 32 11 -1 21 10 28 31 6 17 19 41
29 52 14 16 15 21 5 21 -7 0 -31 -19 -53 -42 -48 -53 -62 -34 -17 22 33 41 41
61 16 40 -12 -10 -15 -9 -15 5 0 9 11 26 25 37 31 24 28 42 -8 45 -24 2 -27
-2 -28 -30 0 -18 -4 -41 -9 -52 -13 -30 -13 77 0 110 10 26 12 27 80 23 44 -2
69 1 67 7 -2 6 -36 11 -75 13 -70 3 -72 4 -72 28 0 14 5 35 11 46 12 22 13 28
24 175 6 69 5 96 -5 108 -10 12 -10 15 3 15 13 0 17 14 19 63 l3 62 88 3 c48
1 87 7 87 12 0 6 25 10 55 10 59 0 68 -9 33 -32 l-22 -15 29 -26 c17 -15 42
-27 57 -27 42 0 58 -24 59 -88 l1 -57 10 48 c14 65 1 91 -59 119 -25 13 -48
28 -50 34 -4 13 28 24 70 24 16 0 26 4 22 10 -3 6 3 10 14 10 10 0 26 2 34 5
19 8 20 -2 21 -247 1 -207 8 -273 20 -191 12 87 18 461 7 481 -10 18 -8 21 17
24 46 5 30 23 -24 26 -49 3 -52 5 -56 33 -4 28 -3 29 22 24 17 -4 31 -1 39 9
7 8 19 12 27 9 8 -3 14 1 14 8 0 8 28 33 61 57 66 47 97 63 85 44 -5 -8 -2
-10 8 -6 9 3 16 12 16 19 0 7 24 30 53 51 69 49 117 95 117 111 0 7 6 10 13 7
20 -7 60 11 99 45 l34 29 122 -76 c110 -70 199 -133 162 -116 -8 4 -72 43
-143 87 -70 44 -129 78 -132 76 -4 -5 85 -65 320 -216 163 -105 215 -133 248
-133 29 0 37 -7 30 -26 -8 -21 -77 -17 -124 7 -38 19 -149 89 -381 238 l-97
62 -138 -92 c-207 -138 -335 -230 -329 -236 3 -3 24 6 46 21 22 15 45 24 49
21 5 -2 12 2 15 11 3 8 10 12 16 9 6 -3 13 2 17 12 10 28 36 43 50 31 10 -8
13 -6 13 7 0 21 37 52 73 60 15 4 27 10 27 15 0 10 51 48 71 52 8 2 25 15 38
31 29 33 38 34 61 4 10 -13 40 -34 66 -47 27 -14 57 -33 67 -43 10 -10 22 -15
28 -12 5 4 8 1 7 -6 -2 -6 24 -25 57 -42 33 -17 62 -34 65 -37 10 -12 99 -70
107 -70 5 0 22 -13 37 -29 24 -25 34 -29 64 -24 l35 6 -6 -37 c-8 -51 11 -43
41 15 l23 46 242 5 c133 3 283 3 332 -1 50 -4 97 -4 105 0 17 9 -18 15 -135
25 l-80 6 28 23 c22 17 28 28 25 51 l-4 29 -13 -32 c-7 -18 -28 -42 -46 -53
-30 -18 -49 -20 -229 -20 l-198 0 7 30 c6 25 3 30 -19 36 -14 3 -29 4 -33 1
-15 -10 -87 29 -222 117 -128 85 -134 91 -143 150 -2 10 -13 23 -26 27 -19 7
-24 4 -32 -17 -6 -16 -15 -23 -22 -18 -31 17 -98 76 -98 86 0 5 9 21 20 35 11
14 20 34 20 44 0 11 6 19 13 19 6 0 221 5 477 10 414 9 466 8 476 -5 10 -14
12 -14 18 2 6 15 10 13 31 -12 13 -17 24 -38 25 -47 0 -15 -4 -16 -25 -6 -36
16 -40 4 -10 -26 27 -27 60 -94 51 -104 -3 -2 -8 3 -12 12 -7 18 -49 22 -60 5
-10 -17 13 -34 29 -21 17 15 31 3 17 -13 -8 -9 -6 -14 5 -19 25 -9 17 -34 -12
-38 -23 -2 -28 -7 -25 -27 3 -34 10 -38 26 -16 12 17 14 12 21 -41 10 -82 32
-134 57 -134 16 0 19 4 13 23 -20 66 -25 106 -35 247 -9 135 -21 240 -36 318
-7 33 -22 27 -30 -13z m-1065 -89 c9 -11 9 -15 -1 -19 -10 -4 -9 -9 4 -20 20
-16 6 -37 -23 -37 -23 0 -35 20 -18 30 10 7 10 11 -1 25 -12 14 -12 18 1 26
19 12 25 11 38 -5z m181 -218 c0 -11 -7 -10 -31 3 -17 9 -18 13 -8 26 12 13
14 13 26 -3 7 -10 13 -21 13 -26z m180 -153 c102 -66 159 -95 191 -95 16 0 29
-4 29 -10 0 -16 -38 -11 -83 11 -58 29 -207 120 -213 131 -10 16 8 7 76 -37z
m-1005 -195 c-3 -6 4 -10 16 -10 16 0 20 -3 12 -11 -7 -7 -75 -10 -189 -10
-108 1 -185 -3 -194 -9 -10 -8 33 -9 145 -4 141 6 158 5 147 -8 -9 -11 -47
-17 -154 -22 -78 -3 -147 -11 -152 -16 -6 -6 -13 -10 -17 -10 -7 0 -60 88 -56
92 1 1 92 4 202 8 110 3 210 7 223 8 13 1 21 -2 17 -8z m63 -57 c3 -10 -13
-13 -60 -13 -58 1 -62 2 -43 16 24 18 96 15 103 -3z"/>
<path d="M2390 1951 c8 -6 23 -11 32 -11 9 0 19 -4 22 -8 4 -7 36 -383 36
-424 0 -5 5 -8 11 -8 8 0 10 18 5 63 -4 34 -11 134 -16 221 -6 88 -11 160 -13
162 -1 1 -22 5 -47 8 -33 5 -41 4 -30 -3z"/>
<path d="M733 1903 c20 -2 54 -2 75 0 20 2 3 4 -38 4 -41 0 -58 -2 -37 -4z"/>
<path d="M1027 1823 c-3 -21 -2 -72 2 -113 l7 -75 5 113 c4 110 -3 149 -14 75z"/>
<path d="M2050 1810 c-13 -24 -6 -40 20 -40 36 0 41 -56 6 -70 -19 -7 -25 -17
-28 -47 -3 -36 -5 -38 -40 -41 -43 -4 -51 -24 -16 -43 18 -9 20 -9 15 4 -9 24
13 27 173 27 140 0 150 -1 160 -20 14 -26 30 -17 30 16 0 21 -5 24 -34 24
l-34 0 -4 95 c-4 107 -13 125 -54 107 -30 -14 -27 -34 7 -42 28 -7 37 -41 15
-59 -17 -14 -36 -7 -36 15 0 10 -12 14 -41 14 -24 0 -38 -4 -34 -10 7 -12 -5
-13 -20 -2 -5 4 -19 25 -30 46 -24 47 -40 55 -55 26z m198 -117 c26 -11 32
-19 32 -43 l0 -30 -80 0 -80 0 0 50 0 50 48 -7 c26 -3 62 -12 80 -20z"/>
<path d="M817 1793 c-4 -3 -7 -51 -7 -105 l0 -98 -119 0 c-115 0 -171 -9 -171
-29 0 -5 11 -11 25 -13 16 -3 25 -1 25 7 0 9 33 14 119 17 78 3 125 9 135 17
11 9 16 10 16 2 0 -6 12 -11 26 -11 21 0 24 -3 19 -22 -6 -22 -5 -22 16 2 l21
25 -25 3 c-30 4 -37 23 -37 114 0 36 -3 73 -6 82 -6 16 -26 21 -37 9z"/>
<path d="M637 1783 c-4 -3 -7 -46 -7 -95 l0 -89 28 3 c27 3 27 4 28 78 1 41
-1 83 -3 93 -4 17 -33 23 -46 10z"/>
<path d="M770 1713 c0 -6 -10 -15 -22 -21 l-23 -11 25 0 c38 -1 55 13 35 29
-8 7 -15 8 -15 3z"/>
<path d="M690 1550 c-11 -7 2 -10 43 -10 36 0 56 4 52 10 -8 13 -75 13 -95 0z"/>
<path d="M1275 1501 c-33 -16 -69 -37 -79 -45 -20 -16 -20 -16 0 -31 21 -16
64 -20 64 -6 0 5 -8 8 -17 7 -10 0 -18 6 -18 14 0 8 9 15 20 15 11 0 20 7 20
15 0 8 9 15 20 15 11 0 36 6 55 12 48 16 148 24 155 12 4 -5 17 -9 31 -9 13 0
32 -4 42 -9 72 -35 92 -49 133 -88 85 -82 106 -151 115 -373 6 -152 10 -174
25 -148 9 17 -5 313 -17 367 -13 53 -69 143 -114 184 -83 75 -128 91 -260 95
-111 3 -117 2 -175 -27z"/>
<path d="M1342 1426 c-47 -15 -97 -45 -89 -52 3 -3 25 5 49 17 29 15 67 24
120 27 69 4 84 2 130 -21 62 -31 98 -63 135 -118 24 -36 28 -56 39 -197 l13
-157 -4 153 c-5 142 -7 156 -32 205 -38 72 -38 71 -14 64 11 -3 24 -1 27 4 3
5 -7 9 -23 9 -15 0 -61 17 -102 37 -59 30 -86 38 -140 40 -36 2 -85 -3 -109
-11z"/>
<path d="M1160 1398 c0 -9 5 -20 10 -23 22 -14 9 -27 -20 -21 -32 6 -39 -4
-16 -23 11 -9 21 -7 48 9 18 11 27 20 21 20 -19 0 -15 18 5 23 14 4 13 5 -3 6
-12 0 -26 6 -33 13 -9 9 -12 8 -12 -4z"/>
<path d="M1323 1379 c-50 -24 -119 -96 -139 -144 -10 -26 -14 -77 -13 -202 l2
-168 8 150 c11 189 19 218 63 239 19 9 51 16 73 16 22 1 47 8 61 19 32 28 27
33 -13 14 -46 -22 -58 -8 -20 24 26 21 27 24 8 18 -36 -10 -27 4 12 21 62 25
177 13 206 -23 10 -12 10 -15 2 -9 -17 9 -16 -4 1 -26 7 -10 20 -18 29 -18 9
0 27 -23 43 -55 24 -50 28 -72 34 -203 4 -81 6 -150 4 -153 -6 -10 24 -83 35
-87 6 -2 11 -20 11 -40 0 -21 9 -55 21 -76 30 -57 47 -153 55 -310 7 -131 6
-139 -11 -133 -14 6 -16 4 -10 -10 14 -34 24 -99 25 -160 l0 -63 55 0 c46 0
55 3 55 18 0 9 -5 24 -10 32 -8 12 -10 11 -10 -7 0 -24 -14 -31 -25 -13 -10
16 -25 11 -18 -6 4 -12 2 -15 -8 -12 -11 4 -15 31 -17 116 l-3 112 41 0 c25 0
39 4 35 10 -3 6 -22 10 -41 10 l-34 0 0 64 0 65 38 4 37 4 -36 1 -36 2 -6 83
c-11 138 -10 150 13 144 11 -3 20 -1 20 4 0 5 -6 9 -14 9 -18 0 -73 46 -87 73
-9 16 -8 23 6 33 16 12 15 16 -17 61 l-35 48 -6 173 c-5 150 -9 180 -28 218
-28 59 -100 128 -148 143 -63 18 -160 14 -208 -10z"/>
<path d="M2537 1390 c236 -10 282 -22 111 -30 -79 -3 -132 -10 -139 -17 -10
-10 -10 -53 0 -200 18 -281 21 -305 37 -292 11 9 14 8 14 -4 0 -9 -5 -19 -11
-23 -14 -9 -1 -480 14 -505 15 -24 -30 -113 -60 -117 -13 -2 -25 4 -31 15 -6
10 -13 90 -17 178 -12 298 -31 435 -61 435 -25 0 -26 -25 -4 -63 19 -33 23
-60 31 -244 10 -212 20 -314 34 -346 6 -14 2 -17 -19 -17 -38 0 -32 -20 7 -21
21 -1 25 -3 12 -6 -11 -3 -24 -10 -30 -15 -7 -7 -1 -8 20 -4 41 10 51 22 35
41 -16 19 0 41 24 32 18 -7 22 -27 5 -27 -5 0 -7 -5 -4 -10 10 -17 25 -1 25
26 0 14 4 22 10 19 6 -3 10 -1 10 6 0 7 13 10 35 7 39 -4 43 11 7 27 -24 11
-28 20 -12 30 5 3 19 -4 30 -15 17 -17 24 -19 36 -9 20 16 17 31 -5 24 -11 -3
-28 2 -42 14 -29 24 -19 39 12 17 16 -11 27 -12 41 -5 22 12 24 29 3 29 -9 0
-12 6 -8 15 5 13 2 14 -21 4 -30 -14 -34 -12 -46 30 -11 38 -1 45 36 26 16 -8
35 -15 42 -15 6 0 12 -7 12 -15 0 -8 6 -15 13 -15 22 0 28 12 15 28 -10 11 -8
17 7 28 26 20 47 18 41 -3 -2 -10 -8 -58 -11 -108 -6 -73 -25 -153 -41 -174
-2 -2 -10 2 -19 9 -11 9 -15 9 -15 1 0 -6 7 -14 15 -17 8 -4 12 -10 9 -16 -3
-5 -12 -7 -20 -4 -8 3 -14 -1 -14 -9 0 -18 -31 -35 -64 -35 -16 0 -26 -6 -26
-15 0 -18 -18 -19 -55 -5 -22 9 -26 8 -22 -4 3 -8 1 -17 -6 -19 -7 -2 18 -5
55 -6 112 -3 188 53 222 162 32 104 75 571 57 606 -6 11 -11 36 -11 55 0 20
-5 36 -10 36 -6 0 -16 11 -22 25 -6 14 -19 25 -28 25 -9 0 -21 5 -28 12 -7 7
-12 8 -12 2 0 -6 6 -16 12 -22 10 -10 10 -15 -2 -22 -9 -6 -10 -10 -3 -10 7 0
26 -14 43 -30 25 -24 29 -34 20 -45 -9 -11 -7 -16 7 -24 21 -10 30 -91 11 -91
-5 0 -8 -7 -4 -15 7 -18 -40 -33 -56 -17 -10 10 6 27 27 27 19 0 10 40 -10 43
-11 2 -28 11 -37 20 -24 21 -23 1 2 -31 24 -30 25 -37 5 -37 -9 0 -18 -13 -22
-31 -5 -26 -10 -30 -29 -26 -28 5 -31 -4 -6 -26 11 -11 22 -13 32 -7 9 5 19 5
27 -2 7 -6 22 -8 34 -5 15 4 19 1 17 -11 -2 -13 -16 -18 -53 -20 -28 -2 -54
-8 -60 -13 -7 -7 10 -10 52 -7 40 2 64 -1 67 -8 6 -15 -52 -57 -66 -48 -8 5
-5 10 8 15 16 6 15 8 -8 8 -14 1 -33 4 -42 7 -30 11 -17 -21 16 -39 l32 -18
-25 -13 c-20 -11 -29 -11 -53 3 -59 32 -65 52 -71 216 -3 98 -2 143 4 130 8
-18 10 -16 10 10 2 90 -29 379 -41 386 -10 7 -10 11 0 21 15 15 16 60 1 75
-17 17 -7 67 15 71 11 3 16 0 12 -7 -4 -7 1 -11 12 -11 25 0 44 -23 36 -44 -4
-10 0 -18 11 -22 9 -4 21 -18 26 -31 6 -15 15 -23 26 -21 9 2 16 6 15 11 -1 4
-2 23 -2 43 0 32 -2 35 -16 24 -12 -11 -18 -11 -31 2 -25 26 -6 38 61 38 65 0
81 8 88 44 4 27 -10 29 -237 31 l-200 3 182 -8z"/>
<path d="M2133 1353 c-73 -3 -93 -7 -93 -18 0 -18 21 -19 39 -2 11 10 14 10
18 0 4 -10 46 -13 171 -11 117 1 149 3 107 8 -59 7 -59 7 28 8 50 1 87 6 87
12 0 10 -133 11 -357 3z"/>
<path d="M259 1309 c-48 -28 -59 -50 -66 -128 -5 -62 -4 -69 16 -83 22 -15 22
-16 1 -21 -13 -3 -20 -13 -19 -29 l0 -23 16 23 c18 25 33 29 33 7 0 -8 4 -23
9 -33 5 -9 12 -25 15 -34 3 -10 12 -18 21 -18 19 0 19 29 0 54 -8 11 -15 29
-15 41 0 12 -5 26 -11 32 -9 9 -8 18 5 37 9 15 12 26 6 26 -5 0 -10 7 -10 15
0 8 -4 15 -10 15 -5 0 -10 -7 -10 -15 0 -8 -4 -15 -10 -15 -17 0 -11 29 11 51
20 20 20 21 3 34 -16 12 -16 14 12 28 38 19 73 57 53 57 -8 0 -30 -10 -50 -21z"/>
<path d="M1090 1301 c0 -5 7 -14 15 -21 20 -16 9 -32 -17 -24 -15 4 -19 2 -16
-7 3 -8 14 -15 26 -17 16 -3 25 5 37 34 19 47 20 44 -15 44 -16 0 -30 -4 -30
-9z"/>
<path d="M2760 1284 c0 -10 -6 -14 -14 -11 -14 5 -36 -10 -36 -25 0 -4 5 -8
12 -8 6 0 20 -7 30 -17 17 -15 18 -14 18 30 0 26 -2 47 -5 47 -3 0 -5 -7 -5
-16z"/>
<path d="M1391 1269 c-28 -27 -44 -67 -36 -96 9 -39 25 -25 25 22 0 32 4 45
14 45 14 0 33 37 24 46 -3 2 -15 -6 -27 -17z"/>
<path d="M1421 1229 c-16 -38 -8 -59 23 -59 40 0 49 49 13 73 -22 14 -24 13
-36 -14z"/>
<path d="M1516 1230 c6 -31 5 -33 -10 -21 -19 16 -21 5 -3 -32 15 -33 23 -34
31 -4 9 35 7 52 -9 73 -15 18 -16 17 -9 -16z"/>
<path d="M1043 1194 c4 -4 16 -12 29 -18 33 -17 37 -40 4 -32 -34 8 -35 -11 0
-24 28 -11 24 -30 -7 -30 -10 0 -19 -4 -19 -10 0 -17 46 -11 63 8 18 20 23 47
7 37 -5 -3 -10 -2 -10 4 0 5 5 13 10 16 16 10 12 20 -19 38 -28 16 -72 24 -58
11z"/>
<path d="M1562 1167 c-8 -9 -5 -29 9 -72 10 -33 22 -82 25 -109 4 -33 9 -45
16 -38 20 20 8 110 -29 202 -3 8 -5 18 -5 23 3 11 -4 9 -16 -6z"/>
<path d="M2750 1166 c0 -8 5 -18 10 -21 8 -5 7 -12 -1 -22 -10 -12 -10 -16 1
-23 8 -5 18 -6 22 -4 9 6 11 46 2 68 -8 20 -34 21 -34 2z"/>
<path d="M2667 1149 c-4 -16 0 -19 30 -19 40 0 41 20 1 31 -21 5 -27 3 -31
-12z"/>
<path d="M1390 1138 c0 -24 4 -28 29 -28 17 0 33 5 36 10 3 6 -4 10 -16 10
-12 0 -28 8 -35 18 -12 15 -13 14 -14 -10z"/>
<path d="M2340 1090 c0 -5 4 -10 10 -10 15 0 91 -71 112 -105 17 -28 18 -29
18 -7 0 16 -19 43 -55 78 -52 50 -85 67 -85 44z"/>
<path d="M1436 1078 c-3 -7 -6 -22 -8 -33 -2 -10 -14 -22 -28 -26 -16 -4 -19
-7 -7 -8 9 -1 17 -4 17 -8 0 -5 -32 -36 -70 -71 -67 -60 -82 -82 -60 -82 6 0
16 11 22 25 8 19 14 22 19 13 6 -10 12 -7 24 10 20 27 39 28 75 2 32 -23 60
-17 60 11 0 16 -8 19 -46 19 -52 0 -56 16 -10 38 25 13 30 12 50 -7 12 -12 27
-21 32 -21 6 0 21 -11 34 -25 27 -29 67 -212 50 -229 -7 -7 -10 -2 -10 13 0
14 -5 21 -12 18 -8 -2 -13 -21 -13 -43 0 -35 -3 -39 -25 -39 -19 0 -26 6 -31
30 -7 30 -7 30 -8 3 0 -15 -6 -30 -12 -34 -9 -5 -10 6 -5 41 8 50 -6 59 -28
20 -20 -34 -40 -55 -53 -55 -7 0 -13 -4 -13 -10 0 -15 38 -12 43 3 3 9 7 9 19
0 16 -14 108 -20 126 -9 7 4 12 17 12 28 0 21 1 21 28 -5 27 -26 91 -40 77
-17 -3 6 -15 10 -26 10 -11 0 -19 7 -19 16 0 8 -5 25 -12 37 -15 29 -22 111
-8 102 13 -8 13 26 -1 62 -13 36 -64 88 -99 103 -27 11 -60 65 -60 100 0 23
-18 37 -24 18z"/>
<path d="M2158 1073 c-10 -2 -18 -9 -18 -15 0 -6 8 -7 18 -3 39 15 73 17 123
6 87 -19 133 -65 165 -166 12 -38 13 -38 13 -10 1 72 -73 164 -149 185 -35 10
-120 12 -152 3z"/>
<path d="M1107 1036 c-5 -21 -6 -40 -3 -43 9 -10 18 24 14 54 -3 26 -4 25 -11
-11z"/>
<path d="M645 1051 c-14 -6 -5 -9 32 -14 29 -3 70 -15 92 -26 45 -23 55 -26
46 -11 -8 13 -83 46 -120 53 -16 2 -39 2 -50 -2z"/>
<path d="M2781 1034 c-1 -48 11 -124 20 -124 9 0 0 105 -12 135 -6 17 -8 15
-8 -11z"/>
<path d="M1993 1039 c-12 -14 -21 -114 -12 -124 8 -7 32 97 28 120 -3 15 -6
16 -16 4z"/>
<path d="M2165 1038 c-35 -19 -66 -52 -87 -91 -23 -47 -21 -100 5 -105 17 -3
18 1 12 42 -5 31 -4 46 4 46 6 0 11 9 11 20 0 11 7 20 15 20 8 0 15 7 15 16 0
10 6 14 15 10 9 -3 15 0 15 9 0 12 15 15 66 15 65 0 68 -1 109 -43 27 -26 47
-58 54 -84 14 -49 31 -65 31 -28 0 31 -40 113 -67 137 -47 43 -152 62 -198 36z"/>
<path d="M610 1004 c-19 -8 -43 -23 -53 -32 -23 -21 -54 -79 -58 -111 -6 -35
18 -37 26 -2 11 51 60 109 102 120 50 14 104 13 124 -2 28 -21 69 -89 69 -114
0 -13 -5 -33 -10 -44 -11 -20 -4 -24 19 -10 21 13 9 101 -19 141 -26 37 -90
70 -135 69 -16 0 -46 -7 -65 -15z"/>
<path d="M158 970 c-4 -19 -9 -69 -12 -112 l-6 -76 86 -7 c59 -5 89 -4 97 4 8
8 -10 11 -69 11 -83 0 -118 10 -93 26 11 7 13 29 9 99 -4 69 -7 82 -12 55z"/>
<path d="M2220 991 c0 -6 7 -11 16 -11 8 0 20 -13 25 -30 10 -28 29 -33 29 -7
-1 29 -70 76 -70 48z"/>
<path d="M653 963 c-21 -8 -15 -23 10 -23 13 0 28 -5 35 -12 17 -17 25 -3 12
21 -10 20 -31 25 -57 14z"/>
<path d="M1100 955 c-10 -12 -10 -18 0 -30 11 -14 10 -14 -14 -5 -34 13 -49
13 -41 0 3 -5 15 -10 26 -10 10 0 19 -4 19 -10 0 -5 -14 -7 -32 -4 -31 5 -32
5 -14 -10 11 -9 32 -16 48 -16 27 0 28 2 28 50 0 55 -2 57 -20 35z"/>
<path d="M1922 870 c-59 -9 -71 -15 -55 -31 8 -8 13 -8 17 0 9 14 76 14 76 0
0 -6 -9 -9 -20 -6 -11 3 -23 1 -26 -4 -3 -5 -16 -9 -30 -9 -22 0 -23 -3 -14
-20 12 -23 32 -27 24 -5 -4 9 0 15 10 15 19 0 21 -21 4 -38 -8 -8 -9 -12 -1
-12 17 0 83 81 83 102 0 10 -3 17 -7 17 -5 -1 -32 -5 -61 -9z"/>
<path d="M1452 858 c-19 -19 -15 -25 18 -30 31 -5 34 -1 24 26 -7 19 -25 21
-42 4z"/>
<path d="M1333 817 c4 -31 3 -47 -4 -47 -6 0 -13 9 -16 20 -11 41 -25 20 -18
-26 5 -35 4 -44 -6 -39 -9 6 -10 2 -6 -15 3 -13 0 -38 -8 -57 l-14 -34 42 3
c33 2 43 7 45 23 3 24 -14 53 -24 42 -4 -4 -2 -13 4 -19 17 -17 15 -33 -3 -18
-23 19 -19 61 6 67 16 4 17 8 7 14 -10 6 -10 11 0 21 15 15 16 94 0 104 -8 5
-9 -5 -5 -39z"/>
<path d="M1144 833 c-3 -10 -13 -35 -24 -55 -21 -43 -10 -51 17 -12 10 14 26
33 35 42 13 12 14 19 6 29 -15 18 -28 16 -34 -4z"/>
<path d="M1005 820 c-3 -5 -17 -10 -31 -10 -13 0 -24 -4 -24 -10 0 -5 7 -10
15 -10 17 0 18 -2 9 -24 -5 -14 -11 -12 -36 9 -28 24 -86 36 -73 15 3 -5 17
-10 31 -10 13 0 24 -4 24 -10 0 -15 -97 -13 -103 3 -8 21 -19 0 -12 -23 7 -21
11 -22 88 -16 121 9 118 8 111 29 -6 18 9 36 29 37 15 0 6 -19 -10 -23 -17 -4
-17 -4 0 -12 11 -5 24 -2 36 9 10 9 28 16 40 16 14 0 21 5 18 13 -2 7 -18 11
-40 9 -19 -1 -38 2 -42 8 -8 13 -22 13 -30 0z"/>
<path d="M560 796 c0 -13 6 -35 13 -48 9 -19 16 -23 28 -15 14 8 13 14 -4 48
-22 44 -37 50 -37 15z"/>
<path d="M1200 803 c0 -11 -3 -35 -6 -52 -6 -28 -4 -31 19 -31 24 0 25 2 20
38 -6 44 -33 80 -33 45z"/>
<path d="M1810 806 c0 -8 10 -22 22 -30 25 -18 49 -9 25 9 -10 7 -17 17 -17
24 0 6 -7 11 -15 11 -8 0 -15 -6 -15 -14z"/>
<path d="M1995 810 c3 -5 26 -10 51 -10 24 0 44 5 44 10 0 6 -23 10 -51 10
-31 0 -48 -4 -44 -10z"/>
<path d="M1389 745 c-1 -25 -2 -50 -3 -57 -1 -6 5 -13 12 -15 6 -3 12 2 12 11
0 8 14 29 31 47 29 29 35 51 14 50 -6 0 -11 -9 -13 -21 -2 -11 -10 -20 -18
-20 -10 0 -13 6 -9 19 3 12 0 21 -10 25 -12 4 -15 -4 -16 -39z"/>
<path d="M1977 776 c-8 -21 2 -26 55 -26 35 0 50 4 55 15 3 9 2 19 -2 23 -4 4
-10 1 -12 -5 -5 -15 -73 -18 -73 -3 0 15 -17 12 -23 -4z"/>
<path d="M776 745 c-4 -16 -9 -35 -11 -42 -6 -18 14 -27 21 -10 3 8 4 30 2 49
l-4 33 -8 -30z"/>
<path d="M2224 755 c-4 -9 -2 -102 2 -208 l9 -192 33 -3 32 -3 -1 48 c-1 147
-18 344 -29 358 -16 19 -39 19 -46 0z"/>
<path d="M170 743 c-31 -22 -28 -80 6 -95 23 -11 28 -9 49 18 31 37 31 49 1
29 -24 -16 -60 -11 -53 9 2 6 19 13 38 17 68 11 81 36 19 36 -22 0 -49 -6 -60
-14z"/>
<path d="M497 743 c-11 -10 -8 -113 3 -113 6 0 10 17 10 38 0 20 3 47 6 60 6
21 -5 30 -19 15z"/>
<path d="M2576 743 c-11 -12 -6 -22 8 -17 9 3 22 -6 33 -23 9 -15 22 -31 28
-35 10 -8 -7 -12 -32 -9 -15 2 -17 -15 -4 -23 5 -3 23 -1 40 5 43 15 42 50 -1
76 -44 25 -65 33 -72 26z"/>
<path d="M644 718 c-5 -7 -11 -75 -15 -151 -4 -86 -11 -143 -19 -152 -15 -18
-7 -30 15 -22 8 4 15 15 15 26 0 11 5 23 10 26 7 4 10 -8 8 -32 -2 -21 2 -40
7 -43 12 -6 27 180 23 285 -2 56 -6 70 -20 73 -9 2 -20 -3 -24 -10z"/>
<path d="M930 701 c0 -6 9 -25 21 -40 17 -23 22 -48 26 -130 5 -89 4 -104 -12
-121 -13 -15 -15 -24 -8 -31 28 -28 49 56 55 214 l2 57 39 0 c32 0 37 -3 33
-17 -3 -10 -1 -25 4 -33 8 -12 10 -11 10 6 0 12 7 27 15 34 26 21 19 43 -12
37 -15 -3 -37 0 -50 6 -18 8 -27 6 -43 -8 -20 -18 -21 -18 -50 10 -17 16 -30
23 -30 16z"/>
<path d="M1826 679 c11 -12 26 -18 37 -15 11 2 28 0 38 -7 23 -14 45 3 36 27
-5 12 -21 16 -68 16 -62 0 -62 0 -43 -21z"/>
<path d="M796 682 c-2 -4 -1 -14 5 -22 5 -8 9 -59 9 -113 0 -63 4 -96 10 -92
6 4 10 55 10 121 0 93 -3 114 -14 114 -8 0 -17 -4 -20 -8z"/>
<path d="M1950 641 c0 -11 -6 -22 -12 -24 -10 -4 -10 -8 2 -16 8 -5 18 -7 22
-5 12 7 10 64 -2 64 -5 0 -10 -9 -10 -19z"/>
<path d="M2578 608 c2 -29 8 -71 12 -93 l8 -40 1 40 c1 56 -10 145 -19 145 -4
0 -5 -24 -2 -52z"/>
<path d="M157 634 c-10 -11 -8 -42 3 -46 6 -2 4 -19 -5 -44 -8 -23 -18 -77
-24 -120 -5 -43 -14 -99 -20 -124 -14 -60 -14 -157 0 -166 8 -4 7 -9 -2 -14
-7 -5 -14 -33 -17 -64 l-4 -56 40 0 c37 0 40 2 35 23 l-6 22 25 -22 c25 -24
48 -30 48 -14 0 5 -9 13 -20 16 -25 8 -45 41 -30 50 6 4 8 11 5 16 -12 19 25
41 60 37 29 -3 35 -1 35 15 0 17 -5 19 -39 14 -21 -2 -48 -14 -60 -26 -26 -26
-44 -27 -37 -3 3 9 2 32 -3 49 -7 24 -6 35 5 44 17 14 18 36 2 41 -9 3 -8 12
5 31 11 17 15 36 11 51 -3 14 -2 31 3 38 4 7 8 22 8 33 0 16 6 20 33 17 17 -1
32 0 32 2 0 13 -61 66 -70 61 -22 -13 -8 15 30 64 22 28 40 53 40 57 0 3 -13
3 -29 -1 -21 -4 -32 -2 -38 10 -5 8 -12 12 -16 9z"/>
<path d="M1151 622 c-1 -12 7 -35 16 -50 9 -15 17 -28 17 -28 1 -1 11 -5 24
-8 31 -10 28 10 -5 43 -16 15 -33 35 -40 46 -11 19 -12 19 -12 -3z"/>
<path d="M845 601 c-8 -14 23 -41 46 -41 18 0 17 2 -7 25 -30 28 -31 28 -39
16z"/>
<path d="M532 580 c-6 -11 -18 -17 -26 -14 -9 3 -16 -4 -20 -22 -10 -37 0 -41
27 -13 13 13 32 29 42 35 11 6 15 15 11 22 -10 17 -19 15 -34 -8z"/>
<path d="M1655 590 c3 -5 14 -10 25 -10 12 0 18 -7 18 -22 0 -13 4 -62 8 -109
5 -60 3 -88 -5 -93 -16 -10 -13 -102 8 -241 l19 -120 1 181 c1 99 -2 236 -6
302 l-6 122 -34 0 c-20 0 -32 -4 -28 -10z"/>
<path d="M1348 583 c28 -2 76 -2 105 0 28 2 5 3 -53 3 -58 0 -81 -1 -52 -3z"/>
<path d="M267 573 c-9 -2 -14 -9 -11 -15 4 -6 -6 -22 -22 -34 -21 -17 -26 -26
-17 -35 14 -14 53 -2 53 17 0 8 9 23 20 34 12 12 18 25 15 30 -6 10 -9 11 -38
3z"/>
<path d="M1069 513 c-1 -85 -10 -105 -59 -138 -32 -21 -40 -31 -28 -33 60 -11
116 78 104 163 -7 43 -6 45 18 45 14 0 26 5 26 10 0 6 -13 10 -30 10 -30 0
-30 0 -31 -57z"/>
<path d="M1900 560 c0 -5 7 -10 15 -10 8 0 20 -9 27 -20 17 -26 38 -26 38 1 0
14 -5 19 -14 16 -8 -3 -20 1 -26 9 -14 16 -40 19 -40 4z"/>
<path d="M1348 553 c57 -2 147 -2 200 0 53 1 7 3 -103 3 -110 0 -154 -2 -97
-3z"/>
<path d="M1741 463 c1 -77 2 -82 10 -43 11 64 11 130 -1 130 -6 0 -9 -35 -9
-87z"/>
<path d="M1262 405 c2 -68 7 -119 14 -123 6 -4 13 -15 17 -24 3 -10 13 -18 22
-18 12 0 14 7 9 28 -4 15 -7 29 -6 32 0 23 7 27 45 26 l42 -1 -3 -39 c-3 -26
0 -36 7 -32 6 4 11 28 11 52 l0 46 -57 -4 c-32 -2 -67 -8 -78 -12 -12 -5 -7 4
15 23 24 22 29 31 17 31 -20 0 -37 29 -37 64 0 28 18 34 115 38 l60 2 0 -62
c0 -34 3 -62 7 -62 5 0 8 -83 8 -185 0 -166 2 -185 17 -185 15 0 16 16 10 172
-4 95 -9 201 -13 234 -6 57 -5 63 15 73 32 17 88 4 95 -22 3 -12 6 -120 6
-239 0 -211 1 -218 20 -218 19 0 20 7 20 260 l0 260 -191 0 -191 0 4 -115z"/>
<path d="M749 493 c-1 -10 0 -29 1 -42 1 -18 -2 -22 -15 -17 -13 5 -15 2 -10
-15 4 -11 1 -27 -6 -35 -16 -19 -4 -30 16 -14 24 20 46 79 39 106 -8 30 -24
41 -25 17z"/>
<path d="M433 479 c-28 -10 -30 -23 -3 -16 11 3 20 1 20 -3 0 -12 -50 -50 -66
-50 -7 0 -23 -14 -35 -31 -16 -23 -19 -33 -9 -39 9 -6 9 -12 0 -30 -6 -12 -9
-24 -7 -26 6 -6 47 50 47 63 0 6 18 26 40 47 22 20 40 43 40 51 0 8 5 15 11
15 9 0 10 -23 5 -80 -4 -49 -3 -80 3 -80 13 0 23 73 19 129 -3 49 -25 65 -65
50z"/>
<path d="M928 445 c-6 -14 -8 -28 -5 -32 8 -8 36 26 37 45 0 21 -20 13 -32
-13z"/>
<path d="M886 413 c-11 -11 -7 -42 7 -50 8 -4 16 -16 20 -25 6 -18 47 -26 47
-10 0 13 -34 42 -49 42 -8 0 -10 7 -6 19 6 19 -7 36 -19 24z"/>
<path d="M790 396 c0 -18 31 -29 44 -16 8 8 7 14 -4 20 -22 14 -40 12 -40 -4z"/>
<path d="M1767 404 c-9 -15 3 -133 14 -140 11 -6 11 55 1 111 -4 22 -11 35
-15 29z"/>
<path d="M1120 370 c0 -20 5 -30 15 -30 10 0 15 10 15 30 0 20 -5 30 -15 30
-10 0 -15 -10 -15 -30z"/>
<path d="M605 360 c9 -15 -14 -40 -36 -40 -23 0 -24 -13 -4 -30 10 -9 15 -9
15 -1 0 16 41 13 60 -4 16 -14 17 -14 13 10 -3 14 -12 25 -21 25 -12 0 -13 3
-4 12 19 19 14 38 -9 38 -11 0 -17 -4 -14 -10z"/>
<path d="M840 360 c0 -5 7 -10 15 -10 9 0 14 -8 12 -22 -1 -15 4 -23 16 -26
16 -3 18 0 12 20 -4 12 -12 29 -17 36 -12 14 -38 16 -38 2z"/>
<path d="M2166 341 c-7 -10 31 -61 45 -61 11 0 -15 55 -30 65 -5 3 -12 1 -15
-4z"/>
<path d="M2332 330 c19 -30 -3 -48 -36 -31 -17 10 -29 10 -42 2 -17 -9 -16
-10 9 -11 15 0 27 -4 27 -9 0 -5 12 -11 26 -14 20 -3 27 1 35 20 15 40 11 63
-11 63 -18 0 -19 -3 -8 -20z"/>
<path d="M376 287 c-49 -44 -58 -56 -52 -75 4 -12 12 -22 17 -22 12 0 12 -77
-1 -85 -6 -4 -10 11 -10 39 0 50 -6 58 -38 49 -27 -7 -28 -19 -2 -26 16 -4 20
-14 20 -50 0 -52 -10 -63 -39 -45 -15 9 -17 15 -9 25 6 7 7 13 3 13 -13 0 -75
-41 -75 -50 0 -13 38 -18 50 -6 9 8 16 5 27 -11 l15 -23 26 20 c20 16 27 18
33 8 6 -8 3 -14 -7 -16 -19 -5 -13 -26 9 -30 17 -4 19 9 21 185 0 37 3 42 28
47 15 3 28 11 28 17 0 6 -9 9 -20 6 -30 -8 -24 8 15 37 33 25 45 46 28 46 -5
0 -35 -24 -67 -53z"/>
<path d="M957 293 c-4 -3 -7 -20 -7 -36 0 -25 2 -28 15 -17 12 10 15 10 15 -3
0 -9 -4 -27 -10 -41 -7 -18 -6 -26 2 -26 7 0 9 -25 4 -85 l-7 -85 50 0 c39 0
51 4 51 15 0 17 -21 20 -36 5 -6 -6 -19 -8 -28 -4 -15 6 -17 15 -12 52 3 25 6
76 6 114 0 62 3 72 26 93 l27 25 -45 0 c-25 0 -48 -3 -51 -7z"/>
<path d="M1170 270 c0 -33 24 -50 42 -32 7 7 5 18 -8 36 -25 34 -34 32 -34 -4z"/>
<path d="M592 255 c-15 -32 -15 -52 -1 -60 6 -4 9 -1 8 6 -4 24 12 48 27 42
17 -6 18 9 2 25 -17 17 -23 15 -36 -13z"/>
<path d="M517 243 c-8 -16 -17 -40 -21 -55 -5 -21 -12 -28 -31 -28 -30 0 -34
-26 -6 -35 12 -3 18 -12 15 -20 -3 -7 3 -16 15 -20 12 -3 21 -11 21 -16 0 -6
-4 -7 -10 -4 -5 3 -10 2 -10 -3 0 -6 7 -12 15 -16 8 -3 15 -15 15 -26 0 -13 7
-20 20 -20 16 0 20 7 20 31 0 18 -4 28 -10 24 -6 -4 -8 -11 -5 -16 4 -5 1 -9
-4 -9 -6 0 -11 21 -12 48 0 26 -3 41 -6 35 -7 -19 -20 -16 -26 7 -3 13 0 20 9
20 9 0 14 11 14 34 0 18 7 39 15 46 17 14 20 50 5 50 -5 0 -16 -12 -23 -27z"/>
<path d="M2490 240 c0 -11 7 -20 15 -20 8 0 15 9 15 20 0 11 -7 20 -15 20 -8
0 -15 -9 -15 -20z"/>
<path d="M1290 201 c0 -10 -7 -35 -15 -54 -8 -20 -15 -52 -15 -72 0 -24 4 -35
15 -35 8 0 15 -9 15 -20 0 -11 5 -20 10 -20 13 0 13 43 -1 74 -10 21 -8 34 10
77 19 42 20 53 9 60 -20 13 -28 11 -28 -10z"/>
<path d="M2356 201 c-10 -11 -15 -25 -11 -30 3 -6 -1 -11 -11 -11 -14 0 -14
-3 -4 -15 20 -24 43 -14 47 20 2 16 9 35 15 42 18 22 -17 16 -36 -6z"/>
<path d="M1400 171 c0 -22 -5 -43 -11 -47 -8 -4 -7 -9 2 -15 25 -16 29 -10 29
46 0 30 -4 55 -10 55 -5 0 -10 -18 -10 -39z"/>
<path d="M860 184 c0 -13 -7 -15 -36 -11 -32 5 -35 4 -31 -12 2 -10 1 -25 -3
-32 -7 -10 -11 -10 -25 1 -14 11 -18 11 -32 -3 -15 -15 -15 -16 4 -11 15 4 23
0 27 -14 4 -11 13 -23 21 -26 17 -6 20 -42 6 -51 -13 -8 -51 35 -51 57 0 10
-4 18 -10 18 -5 0 -10 -8 -10 -18 0 -10 -5 -23 -12 -30 -6 -6 -8 -15 -4 -19 4
-4 11 -1 15 6 11 18 31 5 31 -20 0 -25 34 -22 76 6 16 11 34 19 41 20 12 0 42
34 43 48 0 4 -7 7 -16 7 -8 0 -12 -5 -9 -10 3 -6 -2 -13 -12 -17 -10 -3 -25
-12 -35 -20 -26 -23 -34 5 -9 38 11 15 21 34 21 41 0 7 12 24 25 37 l25 23 0
-22 c0 -28 24 -21 28 8 3 19 -1 22 -32 22 -27 0 -36 -4 -36 -16z"/>
<path d="M1177 173 c-3 -4 -3 -20 0 -36 7 -33 33 -36 33 -3 0 24 -24 53 -33
39z"/>
<path d="M2547 151 c-13 -26 -13 -30 0 -35 26 -10 43 -6 43 9 0 8 -6 14 -12
13 -8 -2 -12 6 -10 20 4 30 -4 28 -21 -7z"/>
<path d="M1056 144 c-9 -24 -7 -62 4 -69 6 -4 10 12 10 39 0 48 -4 56 -14 30z"/>
<path d="M1740 88 c0 -69 13 -106 23 -68 7 28 -3 119 -14 126 -5 3 -9 -23 -9
-58z"/>
<path d="M920 99 c0 -24 23 -21 28 4 2 10 -3 17 -12 17 -10 0 -16 -9 -16 -21z"/>
<path d="M2330 116 c0 -23 36 -86 52 -92 27 -8 34 2 9 15 -13 7 -18 17 -14 28
4 10 2 14 -5 9 -6 -4 -12 3 -14 16 -3 18 -28 40 -28 24z"/>
<path d="M2187 90 c-6 -23 -55 -28 -75 -8 -20 20 -27 0 -7 -22 10 -11 15 -28
12 -40 -4 -15 0 -20 14 -20 15 0 18 5 13 24 -6 24 19 45 31 26 9 -15 25 -12
25 5 0 7 7 18 17 23 15 9 14 11 -4 21 -17 9 -22 7 -26 -9z"/>
<path d="M2280 81 c0 -26 17 -36 36 -21 11 10 12 16 3 26 -17 20 -39 17 -39
-5z"/>
<path d="M1177 73 c-9 -8 -9 -58 0 -66 7 -8 43 42 43 61 0 13 -32 17 -43 5z"/>
<path d="M2212 30 c-17 -28 -16 -30 16 -30 22 0 27 4 27 25 0 30 -25 33 -43 5z"/>
<path d="M457 33 c-13 -12 -7 -33 8 -33 8 0 15 9 15 20 0 20 -11 26 -23 13z"/>
</g>
</svg>
